HIERARCHY
ROOT Hips
{
     OFFSET 1.88212 96.90440 -13.34250
     CHANNELS 6 Xposition Yposition Zposition Zrotation Xrotation Yrotation
     JOINT Spine
     {
          OFFSET 0.00000 11.89050 0.00000
          CHANNELS 3 Zrotation Xrotation Yrotation
          JOINT Spine1
          {
               OFFSET -0.00000 25.65740 0.12766
               CHANNELS 3 Zrotation Xrotation Yrotation
               JOINT HEad
               {
                    OFFSET 0.00000 8.73416 0.01134
                    CHANNELS 3 Zrotation Xrotation Yrotation
                    End Site
                    {
                         OFFSET -0.29000 12.77420 2.51395
                    }
               }
               JOINT LeftShoulder1
               {
                    OFFSET 8.99000 -0.36225 -0.22000
                    CHANNELS 3 Zrotation Xrotation Yrotation
                    JOINT LeftArm
                    {
                         OFFSET 10.28270 -0.00338 0.32212
                         CHANNELS 3 Zrotation Xrotation Yrotation
                         JOINT LeftForeArm
                         {
                              OFFSET 32.76690 0.09914 -1.42434
                              CHANNELS 3 Zrotation Xrotation Yrotation
                              JOINT LeftHand
                              {
                                   OFFSET 27.56430 0.08536 1.02216
                                   CHANNELS 3 Zrotation Xrotation Yrotation
                                   End Site
                                   {
                                        OFFSET 16.74430 -0.60000 1.50291
                                   }
                              }
                         }
                    }
               }
               JOINT RightShoulder
               {
                    OFFSET -8.99000 -0.36225 -0.22000
                    CHANNELS 3 Zrotation Xrotation Yrotation
                    JOINT RightArm
                    {
                         OFFSET -10.28270 -0.00338 0.32212
                         CHANNELS 3 Zrotation Xrotation Yrotation
                         JOINT RightForeArm
                         {
                              OFFSET -32.89710 0.09914 -1.42434
                              CHANNELS 3 Zrotation Xrotation Yrotation
                              JOINT RightHand
                              {
                                   OFFSET -27.49210 0.08536 1.02216
                                   CHANNELS 3 Zrotation Xrotation Yrotation
                                   End Site
                                   {
                                        OFFSET -16.63120 -0.60000 1.50291
                                   }
                              }
                         }
                    }
               }
          }
     }
     JOINT LeftUpLeg
     {
          OFFSET 8.94580 -8.66707 0.10165
          CHANNELS 3 Zrotation Xrotation Yrotation
          JOINT LeftLeg
          {
               OFFSET 0.00000 -44.42270 1.37270
               CHANNELS 3 Zrotation Xrotation Yrotation
               JOINT LeftFoot
               {
                    OFFSET -0.25355 -42.09240 -1.46059
                    CHANNELS 3 Zrotation Xrotation Yrotation
                    JOINT LeftToes
                    {
                         OFFSET -0.04000 -4.41509 8.49910
                         CHANNELS 3 Zrotation Xrotation Yrotation
                         End Site
                         {
                              OFFSET 0.08000 -0.04745 9.77979
                         }
                    }
               }
          }
     }
     JOINT RightUpLeg
     {
          OFFSET -8.94580 -8.66707 0.10165
          CHANNELS 3 Zrotation Xrotation Yrotation
          JOINT RightLeg
          {
               OFFSET 0.00000 -44.42270 1.37270
               CHANNELS 3 Zrotation Xrotation Yrotation
               JOINT RightFoot
               {
                    OFFSET 0.25355 -42.09240 -1.46059
                    CHANNELS 3 Zrotation Xrotation Yrotation
                    JOINT RightToes
                    {
                         OFFSET 0.04000 -4.41509 8.49910
                         CHANNELS 3 Zrotation Xrotation Yrotation
                         End Site
                         {
                              OFFSET -0.08000 -0.13745 9.77979
                         }
                    }
               }
          }
     }
}
MOTION
Frames: 20
Frame Time: 0.01667
14.52987 96.33286 -29.70076 34.38905 38.57735 75.97157 -40.52599 38.18114 20.27285 0.01053 0.00704 -0.00437 -22.94119 2.36577 13.29945 2.23957 5.80034 4.65097 -54.41696 -8.75941 -24.81748 -3.95257 -68.27750 -54.17192 2.11706 10.30504 -17.23835 -1.06863 5.89692 5.60041 68.43150 30.24973 79.21363 -1.32302 28.32373 100.42554 17.59460 8.37732 -1.56173 78.88623 -27.96970 27.86566 -107.52666 32.15224 130.80891 -30.09161 0.00834 0.04528 -84.16975 31.69642 81.31271 -47.59114 0.52338 23.27297 31.87753 26.97751 -48.90571 50.98090 -0.03029 -0.03205 -70.69104 -36.08103 23.39248 
14.38789 96.36322 -28.69462 30.87020 36.54660 81.08852 -35.72248 36.87125 16.60759 0.00529 0.01265 -0.00425 -23.25317 5.41499 14.17895 2.29440 6.60300 4.18842 -53.94738 -12.36238 -26.20847 1.83036 -62.61270 -50.14566 -0.94124 1.45272 -10.05357 -0.37234 6.81875 5.27309 68.47648 29.34661 78.60313 -1.27342 28.01611 100.57142 18.76275 9.04411 1.42078 74.79791 -29.76370 29.80459 -109.73466 34.75697 135.84721 -30.08849 0.02526 0.04518 -86.36731 31.19586 88.62106 -44.04814 0.87344 20.78419 32.94469 26.41474 -50.86119 45.78119 -0.01649 -0.03049 -66.41960 -36.63627 23.00482 
14.38208 96.47083 -27.86254 28.04468 34.60064 85.31409 -31.50223 35.05674 13.47316 -0.00008 0.01817 -0.00408 -23.65118 8.46159 15.19898 1.89139 7.72908 3.73836 -53.24553 -15.21993 -26.93460 -2.49687 -55.37518 -58.23237 4.89556 6.07951 -10.07431 -0.07246 8.05501 4.95287 68.65615 28.28046 78.03282 -1.16275 27.71219 100.35043 18.25420 9.08890 -1.02624 69.88007 -31.19776 31.74204 -111.63084 38.18412 140.36946 -30.08442 0.04315 0.04313 -88.36958 31.55476 96.52317 -40.99508 1.28322 18.72038 33.63035 25.35694 -52.32333 40.38865 -0.00321 -0.02613 -61.83867 -37.01266 22.70428 
14.49601 96.62840 -27.22845 25.74260 32.81420 88.82808 -28.03668 32.84677 10.94363 -0.00414 0.02404 -0.00430 -24.01806 11.45605 16.30982 0.92426 9.11655 3.40563 -52.96622 -21.79653 -28.22194 -9.57038 -43.12223 -67.22980 9.24614 4.13797 -1.99170 -0.04515 9.54814 4.60169 68.94098 27.04508 77.47421 -1.01920 27.44768 99.96228 19.17359 9.50749 0.74490 64.21823 -32.27021 33.68515 -113.68953 42.48576 143.92377 -30.06890 0.06608 0.03355 -92.58569 40.66096 104.97319 -38.42255 1.78880 17.03164 33.96354 23.93235 -53.30662 34.87070 0.00862 -0.01941 -56.96275 -37.21947 22.52032 
14.72159 96.84759 -26.81059 23.82690 31.23156 91.77905 -25.41612 30.36244 9.02866 -0.00609 0.02809 -0.00505 -24.24792 14.35885 17.45822 -0.23384 10.71787 3.05717 -53.65117 -30.60118 -30.20384 -13.03974 -31.01335 -69.22333 5.81901 5.83994 -20.24474 -0.20562 11.22937 4.14379 69.31800 25.61681 76.95969 -3.22543 27.81970 96.12345 17.05242 9.18434 4.60029 57.87202 -33.03843 35.61713 -116.80096 48.23159 146.38521 -30.02599 0.07219 0.00861 -94.68520 58.20736 102.45525 -36.32183 2.40580 15.66809 34.00064 22.24647 -53.85860 29.28307 0.01831 -0.01102 -51.81820 -37.25166 22.45643 
15.05816 97.12612 -26.61612 22.19989 29.87062 94.28227 -23.58907 28.14143 7.57399 -0.00763 0.02720 -0.00468 -24.33475 16.72812 18.49590 -1.29985 12.06244 2.72879 -54.07655 -36.69920 -31.71242 -15.46359 -22.73393 -69.90936 13.60466 7.40567 -7.84348 -0.43606 12.62719 3.72477 69.70594 24.00015 76.46745 -4.12057 27.89054 94.22526 16.72075 9.07389 8.40518 50.83771 -33.55545 37.41313 -121.36674 55.50425 148.56920 -27.77390 0.08837 0.11452 -84.88842 69.13869 85.47351 -34.67182 3.14307 14.58620 33.81160 20.38208 -54.04733 23.66348 0.02542 -0.00201 -46.44333 -37.11534 22.49687 
15.48131 97.41120 -26.61225 20.70835 28.57591 96.59689 -22.44387 26.18217 6.52612 -0.02590 0.02840 0.00415 -24.03437 18.74762 19.32985 -2.07503 13.10065 2.40049 -54.71882 -42.19986 -33.49337 -17.73622 -15.13882 -70.21529 15.22206 6.78894 -6.47447 -0.42181 13.69748 3.17425 70.12875 22.36049 76.00728 -4.69159 27.89918 92.70894 16.31269 9.01904 11.10742 43.46789 -34.05718 38.83350 -128.28517 63.07595 153.60707 -25.08627 0.06766 0.14442 -52.24622 75.47084 45.12806 -33.18582 3.97670 13.60466 33.32253 18.44234 -54.01765 18.06891 0.02915 0.00940 -40.81890 -36.82117 22.64072 
15.95886 97.64700 -26.75954 19.33380 27.34904 98.75197 -21.84838 24.52020 5.81018 -0.02484 0.02898 0.00609 -23.40649 20.42332 19.93882 -2.43162 13.83983 2.05232 -55.77533 -47.13585 -35.65766 -20.44074 -7.23803 -71.40435 15.07107 5.97703 -10.00913 -0.10817 14.45815 2.55709 70.49833 20.65171 75.52425 -5.03479 27.86581 91.53787 15.85922 9.02092 13.05870 35.74306 -34.37484 39.70387 -139.08397 70.03456 163.62915 -21.51578 0.08746 0.17035 -12.05190 70.60963 -3.73185 -31.82486 4.87824 12.71053 32.61460 16.43860 -53.84812 12.48573 0.02967 0.01995 -35.01333 -36.38718 22.87881 
16.45583 97.79205 -27.02485 18.06344 26.18363 100.77602 -21.67264 23.18596 5.37581 -0.02134 0.02995 0.00839 -22.45780 21.76366 20.27327 -2.34464 14.27452 1.68042 -57.34330 -51.51008 -38.30274 -23.30300 0.83636 -73.23293 14.48310 5.89851 -15.61422 0.53890 14.90650 1.87774 70.78023 18.82962 75.00304 -5.18942 27.78989 90.69816 15.35668 9.06704 14.50258 27.82600 -34.35148 39.89496 -156.60649 76.09778 181.82080 -17.78818 0.09054 0.14516 0.82356 58.76897 -25.61031 -30.54730 5.80817 11.88690 31.77624 14.38946 -53.61460 6.89655 0.02818 0.02847 -29.10388 -35.84373 23.17691 
16.93443 97.15330 -27.34984 16.57064 24.48336 103.10384 -21.17961 21.93402 4.71395 -0.02041 0.03108 0.00635 -21.22400 22.81844 20.35366 -2.03481 14.58690 1.33670 -61.30409 -56.31162 -42.74982 -26.34350 10.54581 -75.23540 11.20423 7.02485 -19.79621 1.70736 15.27648 1.18850 70.90717 16.88702 74.47443 -4.35196 26.72243 88.72101 12.77861 5.88170 12.52688 19.84777 -34.10316 39.09591 -193.74942 82.57586 219.74586 -12.79784 0.17452 0.04011 -0.34184 47.04679 -33.64548 -28.93430 6.57886 10.99765 31.12913 12.08890 -53.55823 1.27727 0.02592 0.03196 -23.33491 -34.61506 22.92742 
17.40196 96.58676 -27.80672 14.93753 22.19587 105.62234 -20.31586 20.74950 3.83926 -0.01835 0.03159 0.00395 -19.75541 23.56195 20.20300 -1.48840 14.70221 0.93822 -68.58031 -61.24147 -49.88351 -29.60838 21.66055 -77.19600 11.50028 8.37195 -19.11834 3.28159 15.45589 0.43933 70.96310 15.00424 73.93690 -2.63029 24.69306 86.01592 12.63564 5.16875 12.83111 12.10658 -33.46247 37.44460 -270.12894 80.64499 296.29959 -11.59437 0.04528 -0.02751 -1.60859 36.16227 -36.85109 -26.95919 7.09914 10.08795 30.80610 9.48918 -53.69440 -4.46209 0.02426 0.03375 -17.76110 -33.06130 22.29752 
17.84229 96.00864 -28.35772 13.27699 19.31134 108.20732 -19.04766 19.64085 2.78453 -0.01531 0.03200 0.00123 -18.12137 23.97420 19.86236 -0.70114 14.56464 0.46322 -80.72739 -65.72573 -61.21389 -33.32830 32.89728 -77.71886 13.11634 9.62595 -16.76191 5.12706 15.36317 -0.37253 70.99733 13.22665 73.41593 -1.06749 22.93723 83.85676 13.15638 5.29883 14.07049 4.95728 -32.34077 35.16761 -295.62442 70.81165 321.52188 -13.51545 -0.09390 0.02484 -0.75475 25.91030 -38.18644 -24.63404 7.33071 9.22100 30.84566 6.56397 -53.98979 -10.37669 0.02393 0.03465 -12.38446 -31.41041 21.42847 
18.20642 95.47812 -28.94912 11.97478 16.62990 110.33021 -18.47387 19.92435 2.19459 -0.03621 0.10588 -0.00240 -15.99252 23.14786 19.02434 0.85397 13.26214 -0.23476 -103.91595 -69.14544 -81.30942 -37.40942 44.61019 -75.63403 16.83940 10.73691 -12.39016 7.91225 14.05506 -1.03033 70.96226 11.71207 72.86398 0.06915 22.09131 83.30956 14.58543 7.22008 16.67345 -1.24192 -30.03261 32.03261 -307.67838 60.05156 333.46262 -15.44932 -0.06622 0.10434 -0.10772 16.24209 -38.69109 -22.59505 7.41085 8.69087 31.11377 3.89861 -54.19650 -16.32663 0.02781 0.02827 -7.37128 -29.89607 20.17424 
18.44012 95.04324 -29.53118 10.97341 14.22630 112.04250 -18.35475 21.41370 1.89165 -0.02340 0.09719 -0.01400 -13.78574 21.38194 18.03510 2.52134 10.95416 -0.68082 -122.53251 -69.33028 -97.87690 -41.23478 52.33182 -73.21852 16.60571 10.99575 -11.93832 10.64098 11.71101 -1.49739 71.26558 10.62980 72.25195 0.95883 21.75833 83.77136 14.77757 7.49232 16.06502 -5.99246 -26.71204 28.58606 -315.97391 49.49729 341.90421 -15.48484 0.02770 0.04753 1.49172 7.56894 -39.47665 -20.92834 7.39277 8.47238 31.58777 1.43881 -54.31354 -22.30203 0.03209 0.02812 -2.37161 -28.72265 19.03166 
18.53240 94.75558 -30.09043 10.21449 12.13620 113.39162 -18.09221 22.73210 1.65533 0.01816 -0.00989 -0.01636 -12.16493 20.05204 17.28127 3.76720 9.06145 -1.03908 -134.94386 -68.43273 -108.92603 -44.34903 57.43718 -71.22723 18.06482 11.37095 -9.76954 12.84034 9.75983 -1.90801 71.75951 9.74166 71.63240 1.70397 21.76052 84.86602 15.66364 8.82012 16.57124 -9.09839 -22.65199 25.06647 -323.11392 39.71689 349.58405 -14.63344 0.06262 0.00133 2.77698 -0.70615 -42.06726 -19.67062 7.31585 8.52745 32.20633 -0.84080 -54.35080 -28.27364 0.03278 0.03160 2.47834 -27.69335 17.84387 
18.51974 94.53806 -30.62939 9.65384 10.35948 114.41225 -17.73058 23.87908 1.47396 0.02063 -0.01551 -0.01574 -10.97014 18.95747 16.67477 4.69089 7.38439 -1.32967 -142.81163 -67.45747 -115.88539 -46.43901 60.91219 -70.14912 17.41705 11.23543 -9.62319 14.65360 8.01208 -2.21753 72.31666 8.92094 71.05249 2.35969 21.94341 86.25789 15.80960 9.06225 15.44357 -10.64583 -18.20585 21.45041 -327.54807 31.88382 355.54160 -14.62299 0.04130 0.02763 2.67063 6.60755 -39.08866 -18.80921 7.22819 8.81873 32.89859 -2.94700 -54.31458 -34.17877 0.02964 0.03605 7.27474 -26.85559 16.78196 
18.46706 94.38809 -31.17228 9.26833 8.87412 115.13215 -17.29832 24.86680 1.34422 0.01962 -0.01489 -0.01533 -10.16822 18.16592 16.20538 5.30375 6.00768 -1.57459 -147.84683 -66.72396 -120.33079 -47.40457 63.30626 -70.06982 18.02235 11.26218 -8.32150 16.12976 6.55633 -2.46721 72.86374 8.13664 70.53035 2.92534 22.24513 87.77991 16.43497 9.93707 15.13090 -10.82460 -13.69575 17.60486 -331.15454 25.73285 361.39706 -15.13865 0.03086 0.03501 4.04164 -11.44286 -45.05742 -18.24988 7.12251 9.30566 32.95464 -3.93852 -54.28131 -30.27045 -0.01595 -0.01900 3.39293 -26.11271 15.82907 
18.42943 94.27614 -31.72923 9.04474 7.64373 115.57524 -16.81264 25.70265 1.26895 0.01781 -0.01344 -0.01461 -9.68853 17.65467 15.84437 5.63796 4.92963 -1.77378 -151.10072 -66.26627 -123.21812 -47.32811 65.00347 -70.91636 17.46265 11.00836 -8.13191 17.30942 5.39518 -2.67044 73.38665 7.37409 70.08315 3.38761 22.60799 89.29093 16.56008 10.14390 14.03446 -9.83428 -9.38672 13.38531 -334.71201 20.99616 367.65137 -15.60482 0.02972 0.02695 4.44111 0.03203 -41.73852 -17.93654 7.06495 9.95503 33.22169 -5.02180 -54.21284 -26.59986 -0.01955 -0.01792 -0.57524 -25.55553 14.90950 
18.43270 94.18126 -32.29450 8.97173 6.62644 115.76730 -16.28692 26.39243 1.25013 0.01549 -0.01163 -0.01378 -9.46341 17.39380 15.57052 5.74564 4.13961 -1.92984 -153.19817 -66.03605 -125.11446 -46.37860 66.17885 -72.47361 17.74433 10.88355 -7.25344 18.23080 4.52398 -2.84263 73.89103 6.64362 69.71004 3.71609 23.01404 90.74648 16.97888 10.72778 13.50426 -7.86774 -5.51709 8.67466 -338.62683 17.38847 374.42453 -15.78480 0.02855 0.01584 4.96902 -3.72435 -43.60524 -17.81376 7.11075 10.73424 33.61660 -6.05184 -54.08193 -23.00589 -0.01857 -0.01392 -4.57432 -25.10736 14.06048 
18.47867 94.10342 -32.86664 9.02806 5.78719 115.73771 -15.52887 26.55893 1.05681 0.01087 -0.00530 -0.01118 -9.67623 17.70926 15.57108 5.47780 4.01221 -1.96346 -154.48083 -65.97369 -126.33033 -44.73932 66.96024 -74.54018 17.34017 10.59117 -7.05863 18.73582 4.33315 -2.94673 74.40593 5.92075 69.41750 3.89399 23.43639 92.08058 17.01410 10.88209 12.64282 -5.05740 -2.35535 3.41256 -345.00739 14.11799 383.28967 -13.72970 -0.03354 -0.03858 5.59884 -0.72263 -44.43523 -17.84098 7.27457 11.60854 34.08815 -6.94463 -53.87503 -19.40567 -0.01764 -0.00959 -8.55449 -24.75560 13.28384 
